<?xml version="1.0" standalone="no"?>
<!DOCTYPE svg PUBLIC "-//W3C//DTD SVG 20010904//EN"
 "http://www.w3.org/TR/2001/REC-SVG-20010904/DTD/svg10.dtd">
<svg version="1.0" xmlns="http://www.w3.org/2000/svg"
 width="155.000000pt" height="30.000000pt" viewBox="0 0 155.000000 30.000000"
 preserveAspectRatio="xMidYMid meet">

<g transform="translate(0.000000,30.000000) scale(0.100000,-0.100000)"
fill="#000000" stroke="none">
<path d="M573 213 c27 -4 27 -5 27 -79 0 -95 18 -97 22 -2 3 72 3 73 33 79 19
4 4 7 -40 6 -38 0 -58 -2 -42 -4z"/>
<path d="M1223 140 c0 -47 2 -66 4 -42 2 23 2 61 0 85 -2 23 -4 4 -4 -43z"/>
<path d="M701 115 c1 -61 3 -60 14 8 3 22 11 37 20 37 8 0 17 5 20 10 4 6 -5
10 -24 8 l-31 -2 1 -61z"/>
<path d="M780 165 c-10 -12 -10 -15 2 -15 8 0 19 5 24 10 14 14 44 2 44 -16 0
-8 -10 -14 -23 -14 -32 0 -60 -23 -55 -46 3 -16 12 -19 54 -20 l51 -1 -4 46
c-3 25 -6 52 -8 59 -6 17 -70 15 -85 -3z m70 -65 c0 -15 -35 -29 -49 -20 -8 4
-10 13 -7 19 9 14 56 15 56 1z"/>
<path d="M892 172 c2 -4 12 -31 22 -60 11 -29 23 -52 27 -52 4 0 14 21 21 48
l14 47 13 -47 c8 -27 17 -48 21 -48 7 0 50 95 50 111 0 5 -4 9 -9 9 -4 0 -14
-21 -22 -47 l-13 -48 -15 48 c-8 26 -18 47 -22 47 -5 0 -14 -18 -20 -40 -7
-22 -15 -40 -19 -40 -4 0 -12 18 -19 40 -6 22 -16 40 -22 40 -6 0 -9 -4 -7 -8z"/>
<path d="M1092 168 c-7 -7 -12 -28 -12 -48 0 -20 5 -41 12 -48 15 -15 74 -16
83 -1 10 16 -1 22 -21 11 -22 -12 -54 2 -54 23 0 11 12 15 45 15 32 0 45 4 45
14 0 38 -70 62 -98 34z m73 -29 c-8 -12 -65 -12 -65 1 0 5 8 13 17 19 20 11
57 -4 48 -20z"/>
<path d="M1270 120 c0 -33 4 -60 10 -60 6 0 10 27 10 60 0 33 -4 60 -10 60 -6
0 -10 -27 -10 -60z"/>
<path d="M1320 119 c0 -33 4 -59 10 -59 6 0 10 18 10 39 0 43 22 74 45 65 10
-4 15 -21 15 -55 0 -28 5 -49 10 -49 7 0 10 22 8 58 l-3 57 -47 1 -48 2 0 -59z"/>
</g>
</svg>
